<svg width="8" height="15" viewBox="0 0 8 15" fill="none" xmlns="http://www.w3.org/2000/svg">
<path d="M0.351248 1.05995L6.44125 7.30745L0.351248 13.5549C0.24222 13.6666 0.181182 13.8164 0.181182 13.9724C0.181182 14.1285 0.24222 14.2783 0.351248 14.3899C0.404203 14.444 0.46741 14.4869 0.537168 14.5162C0.606926 14.5456 0.681832 14.5607 0.757498 14.5607C0.833164 14.5607 0.908069 14.5456 0.977827 14.5162C1.04758 14.4869 1.11079 14.444 1.16375 14.3899L7.64375 7.7437C7.75751 7.62698 7.82119 7.47044 7.82119 7.30745C7.82119 7.14446 7.75751 6.98791 7.64375 6.8712L1.165 0.224945C1.112 0.170516 1.04864 0.127255 0.978651 0.0977154C0.908662 0.0681761 0.833465 0.0529583 0.757498 0.0529583C0.68153 0.0529583 0.606333 0.0681761 0.536344 0.0977154C0.466355 0.127255 0.402992 0.170516 0.349997 0.224945C0.240969 0.336567 0.179932 0.486412 0.179932 0.642446C0.179932 0.79848 0.240969 0.948323 0.349997 1.05995H0.351248Z" fill="#2F98FC"/>
</svg>
