<svg width="18" height="18" viewBox="0 0 18 18" fill="none" xmlns="http://www.w3.org/2000/svg">
<path d="M6.87409 4.15686e-08C8.18072 -0.000143616 9.46034 0.372066 10.563 1.07303C11.6657 1.77399 12.5458 2.77467 13.1003 3.95784C13.6547 5.14102 13.8605 6.45768 13.6935 7.7536C13.5265 9.04952 12.9937 10.271 12.1574 11.275L16.8991 16.0167C16.9814 16.0931 17.0415 16.1902 17.0732 16.2979C17.1049 16.4056 17.1069 16.5199 17.0791 16.6287C17.0513 16.7374 16.9946 16.8367 16.9152 16.916C16.8357 16.9953 16.7363 17.0516 16.6274 17.0792C16.5188 17.107 16.4046 17.1051 16.297 17.0735C16.1894 17.042 16.0922 16.9821 16.0158 16.9L11.2741 12.1583C10.4256 12.8648 9.41948 13.3565 8.34078 13.5919C7.26208 13.8273 6.14255 13.7995 5.07689 13.5107C4.01124 13.2219 3.03081 12.6808 2.21853 11.933C1.40625 11.1851 0.786021 10.2527 0.410307 9.21452C0.0345933 8.17633 -0.0855532 7.06291 0.0600305 5.96847C0.205614 4.87402 0.612646 3.83074 1.24669 2.92686C1.88074 2.02299 2.72316 1.28512 3.70268 0.775658C4.6822 0.2662 5.77001 0.00014581 6.87409 4.15686e-08ZM1.24909 6.875C1.24909 7.61369 1.39459 8.34514 1.67727 9.02759C1.95995 9.71005 2.37429 10.3301 2.89662 10.8525C3.41895 11.3748 4.03904 11.7891 4.7215 12.0718C5.40396 12.3545 6.13541 12.5 6.87409 12.5C7.61278 12.5 8.34423 12.3545 9.02669 12.0718C9.70914 11.7891 10.3292 11.3748 10.8516 10.8525C11.3739 10.3301 11.7882 9.71005 12.0709 9.02759C12.3536 8.34514 12.4991 7.61369 12.4991 6.875C12.4991 5.38316 11.9065 3.95242 10.8516 2.89752C9.79668 1.84263 8.36594 1.25 6.87409 1.25C5.38225 1.25 3.95151 1.84263 2.89662 2.89752C1.84173 3.95242 1.24909 5.38316 1.24909 6.875Z" fill="#DADADA"/>
</svg>
